Coordinates
version=1
nRows=32
nColumns=12
inDegrees=yes

Units are S.I. units (second, meters, Newtons, ...)
Angles are in degrees

endheader
time	SC_y	SC_z	SC_x	AC_y	AC_z	AC_x	GH_y	GH_z	GH_yy	EL_x	PS_y
       0.0              -15.96          15.49          44.73          54.27         -19.88          9.791          52.49          17.82         -97.42          118.0          11.15
  0.006138              -15.97          15.49          44.73          54.26         -19.88          9.791          52.46          17.81         -97.43          118.0          11.17
   0.01228              -15.97          15.49          44.74          54.26         -19.88          9.792          52.43          17.81         -97.44          118.0          11.19
   0.01841              -15.97           15.5          44.74          54.26         -19.88          9.792           52.4           17.8         -97.45          118.0          11.21
   0.02455              -15.98           15.5          44.75          54.26         -19.88          9.792          52.36           17.8         -97.46          117.9          11.24
   0.03069              -15.99           15.5          44.76          54.26         -19.88          9.792          52.32          17.79         -97.48          117.9          11.26
   0.03683              -15.99           15.5          44.76          54.26         -19.88          9.793          52.28          17.79         -97.49          117.9          11.29
   0.04296               -16.0          15.51          44.77          54.26         -19.87          9.793          52.24          17.78         -97.51          117.9          11.32
    0.0491              -16.01          15.51          44.78          54.26         -19.87          9.793           52.2          17.78         -97.52          117.9          11.35
   0.05524              -16.01          15.51          44.79          54.26         -19.87          9.794          52.15          17.77         -97.54          117.9          11.39
   0.06138              -16.02          15.52          44.79          54.26         -19.87          9.794          52.09          17.76         -97.56          117.9          11.43
   0.06752              -16.03          15.52           44.8          54.26         -19.87          9.794          52.04          17.75         -97.58          117.8          11.46
   0.07365              -16.04          15.52          44.81          54.25         -19.86          9.795          51.98          17.74         -97.61          117.8          11.51
   0.07979              -16.05          15.53          44.82          54.25         -19.86          9.795          51.91          17.73         -97.63          117.8          11.55
   0.08593              -16.06          15.53          44.84          54.25         -19.86          9.796          51.84          17.72         -97.66          117.8           11.6
   0.09207              -16.07          15.54          44.85          54.25         -19.86          9.796          51.76          17.71         -97.68          117.7          11.66
    0.0982              -16.08          15.54          44.86          54.25         -19.85          9.797          51.68           17.7         -97.71          117.7          11.72
    0.1043               -16.1          15.55          44.88          54.25         -19.85          9.798          51.59          17.69         -97.75          117.7          11.78
    0.1105              -16.11          15.56          44.89          54.24         -19.85          9.798          51.48          17.67         -97.79          117.6          11.85
    0.1166              -16.13          15.56          44.91          54.24         -19.84          9.799          51.38          17.66         -97.83          117.6          11.93
    0.1228              -16.15          15.57          44.93          54.24         -19.84            9.8          51.25          17.64         -97.87          117.6          12.01
    0.1289              -16.17          15.58          44.95          54.23         -19.83          9.801          51.12          17.62         -97.92          117.5           12.1
     0.135              -16.19          15.59          44.98          54.23         -19.83          9.802          50.98           17.6         -97.97          117.5           12.2
    0.1412              -16.21           15.6           45.0          54.23         -19.82          9.803          50.81          17.58         -98.03          117.4          12.32
    0.1473              -16.24          15.61          45.03          54.22         -19.81          9.805          50.63          17.55          -98.1          117.3          12.44
    0.1534              -16.27          15.63          45.06          54.22         -19.81          9.806          50.43          17.52         -98.17          117.3          12.58
    0.1596              -16.31          15.64           45.1          54.21          -19.8          9.808          50.21          17.49         -98.25          117.2          12.74
    0.1657              -16.35          15.66          45.14          54.21         -19.79           9.81          49.95          17.45         -98.35          117.1          12.92
    0.1719              -16.39          15.68          45.19           54.2         -19.78          9.812          49.66          17.41         -98.45          117.0          13.12
     0.178              -16.44           15.7          45.24           54.2         -19.77          9.814          49.34          17.36         -98.57          116.9          13.34
    0.1841              -16.49          15.73           45.3          54.19         -19.75          9.817          48.97          17.31         -98.71          116.7           13.6
    0.1903              -16.56          15.75          45.37          54.18         -19.74           9.82          48.54          17.25         -98.86          116.6           13.9
